# xmcd CD database file
#
# Track frame offsets:
#	150
#	17412
#	32785
#	43250
#	66472
#	90624
#	108934
#	128577
#	146046
#	167553
#	184421
#	203606
#
# Disc length: 2976 seconds
#
# Revision: 0
# Processed by: cddbd v1.5.2PL0 Copyright (c) Steve Scherf et al.
# Submitted via: CDex 1.51
#
DISCID=a40b9e0c
DTITLE=MONC - CAÍDA DE UN INVIERNO EXHAUSTO
DYEAR=2008
DGENRE=Jazz
TTITLE0=Monc - Felizmente
TTITLE1=Monc - Más tabaco
TTITLE2=Monc - Suicidas
TTITLE3=Monc - Sierpita
TTITLE4=Monc - Rojo profundo
TTITLE5=Monc - Cemento
TTITLE6=Monc - Descanso
TTITLE7=Monc - Martillo
TTITLE8=Monc - Rigidez
TTITLE9=Monc - Todavía Laura
TTITLE10=Monc - Tortuga vulgar
TTITLE11=Monc - Hermosamente ultraliviano
EXTD=YEAR: 2008
EXTT0=
EXTT1=
EXTT2=
EXTT3=
EXTT4=
EXTT5=
EXTT6=
EXTT7=
EXTT8=
EXTT9=
EXTT10=
EXTT11=
PLAYORDER=
